<?xml version="1.0" encoding="iso-8859-1"?>
<!-- Generator: Adobe Illustrator 16.0.0, SVG Export Plug-In . SVG Version: 6.00 Build 0)  -->
<!DOCTYPE svg PUBLIC "-//W3C//DTD SVG 1.1//EN" "http://www.w3.org/Graphics/SVG/1.1/DTD/svg11.dtd">
<svg version="1.1" id="Capa_1" xmlns="http://www.w3.org/2000/svg" xmlns:xlink="http://www.w3.org/1999/xlink" x="0px" y="0px"
	 width="46.156px" height="46.156px" viewBox="0 0 46.156 46.156" style="enable-background:new 0 0 46.156 46.156;"
	 xml:space="preserve">
<g>
	<g>
		<path d="M27.424,27.996c-1.188,0.063-2.422,0.108-3.746,0.108c-1.482,0-2.861-0.055-4.184-0.135
			c0.295,2.739,0.746,5.026,1.25,6.907c0.969,0.06,1.965,0.104,3.029,0.104c0.846,0,1.659-0.021,2.442-0.06
			C26.709,33.029,27.143,30.728,27.424,27.996z"/>
		<path d="M3.084,21.778c0.057,0.083,0.115,0.165,0.172,0.249c0.916,0.495,2.568,1.271,5.031,2.019
			c-0.049-0.879-0.078-1.785-0.078-2.735c0-0.596,0.023-1.154,0.041-1.722C5.476,20.459,3.797,21.35,3.084,21.778z"/>
		<path d="M8.455,26.226c-1.006-0.282-1.891-0.576-2.678-0.865c0.961,1.181,1.992,2.365,3.055,3.531
			C8.687,28.047,8.553,27.171,8.455,26.226z"/>
		<path d="M0.008,14.356C0.006,14.41,0,14.461,0,14.515c0,1.558,0.762,3.469,1.994,5.551c0.9-0.547,2.967-1.648,6.375-2.643
			c0.211-2.732,0.619-5.115,1.143-7.127C4.484,11.852,1.025,13.763,0.008,14.356z"/>
		<path d="M10.441,16.883c1.945-0.46,4.238-0.854,6.881-1.117c0.223-2.837,0.613-5.269,1.072-7.358
			c-2.355,0.272-4.561,0.712-6.572,1.233C11.223,11.62,10.711,14.024,10.441,16.883z"/>
		<path d="M12.086,3.683c-0.391-0.044-0.783-0.071-1.184-0.071c-5.092,0-9.365,3.514-10.559,8.236
			C2.271,10.828,5.7,9.216,10.22,7.95C10.826,6.174,11.486,4.773,12.086,3.683z"/>
		<path d="M43.41,21.258c-0.898-0.481-2.312-1.13-4.307-1.761c0.016,0.528,0.039,1.047,0.039,1.602c0,1.005-0.035,1.958-0.086,2.882
			c1.455-0.471,2.584-0.949,3.418-1.356C42.807,22.162,43.115,21.708,43.41,21.258z"/>
		<path d="M38.756,27.269c0.422-0.484,0.838-0.971,1.24-1.457c-0.352,0.117-0.717,0.234-1.104,0.351
			C38.854,26.545,38.805,26.905,38.756,27.269z"/>
		<polygon points="22.99,42.466 23.08,42.544 23.348,42.313 23.264,42.247 		"/>
		<path d="M46.156,14.516c0-0.1-0.012-0.194-0.014-0.292c-1.271-1.052-3.888-2.621-8.269-3.989c0.515,2.001,0.912,4.368,1.115,7.093
			c2.584,0.753,4.368,1.582,5.483,2.195C45.525,17.65,46.156,15.933,46.156,14.516z"/>
		<path d="M23.773,37.009c-0.834,0-1.635-0.023-2.412-0.06c0.914,2.721,1.832,4.228,2.178,4.739c0.447-0.719,1.271-2.248,2.08-4.728
			C25.014,36.983,24.412,37.009,23.773,37.009z"/>
		<path d="M36.922,16.791c-0.258-2.852-0.752-5.235-1.336-7.198c-2.1-0.537-4.49-0.996-7.172-1.257
			c0.473,2.068,0.875,4.496,1.115,7.326C32.416,15.898,34.857,16.309,36.922,16.791z"/>
		<path d="M36.215,30.08c0.219-1.035,0.412-2.147,0.559-3.36c-2.032,0.481-4.448,0.894-7.297,1.139
			c-0.256,2.677-0.651,4.973-1.121,6.906c1.402-0.137,2.666-0.338,3.836-0.572C33.508,32.897,34.871,31.513,36.215,30.08z"/>
		<path d="M27.807,36.836c-0.248,0.825-0.504,1.544-0.756,2.205c0.779-0.708,1.656-1.516,2.594-2.399
			C29.049,36.714,28.445,36.784,27.807,36.836z"/>
		<path d="M28.166,6.288c2.428,0.212,4.65,0.565,6.633,1.01c-0.596-1.508-1.201-2.635-1.713-3.462
			C31.238,4.22,29.557,5.087,28.166,6.288z"/>
		<path d="M45.711,11.452c-1.322-4.508-5.48-7.813-10.404-7.836c0.605,1.092,1.267,2.493,1.869,4.276
			C41.129,8.996,43.92,10.342,45.711,11.452z"/>
		<path d="M12.625,7.336c1.711-0.394,3.555-0.712,5.492-0.935c-1.133-1.012-2.469-1.797-3.939-2.271
			C13.707,4.933,13.162,5.978,12.625,7.336z"/>
		<path d="M37.115,21.099c0-0.755-0.021-1.478-0.053-2.182c-2.012-0.505-4.473-0.941-7.396-1.201
			c0.063,1.208,0.111,2.457,0.111,3.795c0,1.53-0.06,2.943-0.144,4.294c2.914-0.27,5.354-0.713,7.342-1.223
			C37.059,23.478,37.115,22.332,37.115,21.099z"/>
		<path d="M27.477,15.533c-0.258-2.804-0.674-5.207-1.156-7.209c-1.178,1.686-1.896,3.712-1.959,5.89l-2.57,0.002
			c-0.051-1.854-0.578-3.595-1.459-5.111c-0.398,1.865-0.742,4.014-0.953,6.492c1.441-0.095,2.957-0.157,4.594-0.157
			C25.205,15.439,26.361,15.479,27.477,15.533z"/>
		<path d="M13.555,33.795c1.479,0.371,3.152,0.685,5.029,0.896c-0.473-1.918-0.877-4.206-1.145-6.871
			c-2.629-0.242-4.912-0.62-6.867-1.063c0.23,1.872,0.57,3.535,0.963,5.005C12.213,32.458,12.889,33.138,13.555,33.795z"/>
		<path d="M17.269,25.761c-0.094-1.423-0.156-2.922-0.156-4.545c0-1.191,0.037-2.312,0.088-3.401
			c-2.701,0.285-4.998,0.715-6.91,1.199c-0.035,0.741-0.057,1.504-0.057,2.298c0,1.167,0.055,2.256,0.131,3.307
			C12.287,25.088,14.596,25.495,17.269,25.761z"/>
		<path d="M19.139,21.215c0,1.692,0.066,3.25,0.17,4.713c1.373,0.092,2.814,0.15,4.369,0.15c1.395,0,2.684-0.051,3.919-0.123
			c0.094-1.388,0.154-2.854,0.154-4.445c0-1.394-0.051-2.689-0.123-3.938c-1.16-0.063-2.363-0.107-3.656-0.107
			c-1.691,0-3.256,0.064-4.73,0.168C19.182,18.775,19.139,19.953,19.139,21.215z"/>
		<path d="M19.168,36.794c-1.018-0.094-1.977-0.22-2.887-0.365c1.631,1.539,3.084,2.858,4.188,3.84
			C20.053,39.349,19.603,38.2,19.168,36.794z"/>
	</g>
</g>
<g>
</g>
<g>
</g>
<g>
</g>
<g>
</g>
<g>
</g>
<g>
</g>
<g>
</g>
<g>
</g>
<g>
</g>
<g>
</g>
<g>
</g>
<g>
</g>
<g>
</g>
<g>
</g>
<g>
</g>
</svg>
